<!-- https://www.amcharts.com/svg-maps/?map=france2016 -->
            <svg xmlns="http://www.w3.org/2000/svg" xmlns:amcharts="http://amcharts.com/ammap" xmlns:xlink="http://www.w3.org/1999/xlink" version="1.1" >

<path id="FR-GES" title="Grand Est"  d="M555.544,136.717l-4.446,-1.406l-1.715,-1.533l-3.117,-0.846l-1.773,-1.913l-0.585,1.023l-1.3,-0.442l-0.917,0.959l-2.997,-2.034l-2.445,1.402l-0.121,-0.814l-2.44,0.758l-1.673,-0.632l-0.071,-1.156l-4.297,-1.53l-1.415,-4.511l-2.425,0.272l0.378,-1.209l-3.317,0.779l-0.1,1.778l-1.507,-0.019l-1.341,1.81l-1.993,-0.949l-2.009,0.93l-0.564,-0.955l-1.112,0.62l-1.313,-1.366l-0.889,0.177l-0.199,-1.051l-0.768,0.468l0.282,1.177l-1.49,0.987l-0.723,-4.861l-0.909,0.203l-1.606,-1.413l-0.548,0.444l-0.889,-1.274l-1.885,0.862l-1.357,-0.862l-0.922,0.64l0.996,2.021l-1.104,1.753l-2.309,-0.981l-1.706,0.278l-1.125,-1.462l0.506,-1.964l-1.179,0.152l-0.262,-2.137l-1.191,-0.583l0.382,-1.339l-2.324,-1.371l-1.951,-2.883l1.398,-1.188l-2.536,-2.328l0.718,-1.126l-0.61,-0.776l-4.795,-2.834l-1.395,0.796l-1.079,-0.414l-0.108,0.701l-1.254,-0.478l-3.91,-2.97l-3.504,0.631l0.179,0.746l-1.37,-0.044l-1.121,2.522l-1.781,-0.84l-0.644,1.216l-2.562,-0.255l-0.568,-2.669l-4.048,-0.344l-1.387,-1.441l0.083,-1.358l-0.822,0.351l-1.847,-1.659l-1.121,1.544l-4.301,-0.714l-1.287,2.729l-2.275,-1.447l-3.482,2.046l-1.794,-6.259l-3.384,-2.229l-1.411,1.259l-0.319,-1.169l1.046,-1.566l-2.582,-2.719l-1.097,0.717l-3.184,-0.512l-0.17,-1.434l-1.449,0.147l-1.378,-3.165l-3.554,-1.237l-0.549,-1.154l-3.715,0.917l-2.259,-0.462l0.959,-1.713l-1.15,-3.023l1.707,-2.75l-1.698,-2.489l-2.342,-0.637l-0.058,-0.682l2.142,-4.464l-0.876,-1.734l0.748,-0.142l0.539,-2.219l0.868,0.877l-0.179,-2.046l1.188,-1.098l-2.886,-2.048l-5.525,5.379l-0.037,5.75l-3.928,0.567l-3.043,2.324l-3.246,0.849l-5.663,-2.046l-3.233,0.676l0,0l-0.599,2.895l1.578,0.636l-0.096,2.288l-1.959,5.667l1.818,1.474l-2.687,3.714l-2.445,1.344l-0.465,2.878l-3.076,-0.301l-0.727,1.01l2.259,3.251l-1.167,1.679l1.088,0.191l0.137,1.11l-1.573,1.128l0.033,2.498l1.092,1.414l-1.271,0.458l-0.058,4.975l-3.205,-1.093l-1.482,-1.864l-2.835,1.686l-0.183,2.25l-3.048,-0.73l-5.505,2.719l0.852,2.837l-0.569,0.945l1.08,1.217l-1.005,1.395l1.175,1.001l0.689,-0.627l0.668,1.907l1.42,-0.272l-0.029,1.405l-1.806,1.051l-0.78,-0.747l-2.661,0.234l-0.889,1.949l1.549,2.681l-2.126,1.068l-0.074,1.472l2.719,-0.392l1.125,1.824l-1.511,0.631l-0.852,2.391l-1.282,0.385l0.544,1.084l-1.221,0.227l-0.142,1.556l-1.76,0.164l-1.773,3.764l0,0l0.071,2.402l-3.471,0.327l1.577,0.352l0.083,0.798l-1.437,0.402l-0.602,1.602l3.067,1.268l0.35,2.491l-1.528,2.163l0.81,0.696l-0.349,1.09l3.458,-0.702l-0.589,0.846l1.631,1.021l-2.407,0.732l0.515,0.933l-2.043,1.208l0.669,1.807l-3.093,0.856l1.308,2.337l-2.267,0.674l0.938,1.654l-0.585,1.785l1.271,0.574l-0.312,1.596l0,0l0.577,1.975l1.594,-1.109l1.549,0.61l1.665,2.927l1.802,1.182l-0.403,1.033l1.723,0.952l-0.755,2.25l0.854,0.435l-1.752,2.546l2.135,-0.329l1.531,3.097l2.309,-0.999l-0.349,-1.124l1.411,0.528l-0.361,2.066l2.143,0.911l1.287,4.566l2.059,1.807l-0.05,0.773l-1.308,-0.093l0.523,1.293l1.175,0.266l0.606,-1.41l0.78,1.349l-0.776,3.115l3.794,-0.068l0.76,-0.754l1.669,1.075l0.644,-1.273l1.221,0.049l0.855,1.174l1.852,-1.798l0,0l0.519,-0.278l0,0l1.461,1.119l0.433,-1.261l-0.743,-0.346l1.308,-0.284l-0.175,1.409l0.938,1.18l1.993,0.315l0.9,-2.249l9.976,-0.414l-0.776,-2.387l1.773,-1.398l3.799,0.94l1.241,-0.619l1.557,1.182l2.308,-0.068l0.669,1.07l-1.018,1.62l2.528,0.111l0.818,1.248l-1.403,1.952l1.204,0.766l0.365,-1.321l1.403,-0.204l1.553,3.364l0,0h0.543l0,0l1.607,3.626l-3.181,2.519l1.794,0.314l0.406,4.683l2.5,-1.5l0.028,1.119l1.32,-0.178l-0.303,1.66l1.083,-0.19l1.565,1.53l2.528,-2.077l-0.203,1.727l2.689,2.199l0.864,-0.356l-0.872,1.584l0.66,1.221l2.814,-2.209l1.366,1.313l2.689,-5.294l1.757,0.301l0.854,-0.738l1.773,0.67l1.743,-2.121l1.217,2.17l3.897,-0.774l-0.257,-2.313l1.009,-1.501l-0.133,-1.293l-1.229,-0.702l0.618,-2.563l2.101,0.05l0.797,-2.436l2.782,0.45l0.834,-3.221l1.507,0.271l-0.013,-1.543l2.043,-3.226l1.129,0.575l-1.332,1.86l0.9,0.136l0.889,-1.316l1.315,0.043l1.541,-2.906l3.96,-0.984l0,0l0.1,0.074l0,0l1.113,2.53l-0.656,0.674l2.441,1.18l-0.142,0.624l0,0v0.321l0,0l3.454,-1.464l4.227,-0.303l1.918,1.168l1.78,3.464l2.707,-1.081l0.835,-1.828l1.806,-0.76l1.615,2.545l5.799,3.301l1.549,2.195l0.734,-0.308l1.03,2.298l6.202,2.438l1.365,3.746l-1.78,4.896l0.635,0.829l0.863,-0.724l1.856,0.467l2.366,4.183l-0.437,1.33l0,0l2.877,0.545l-1.319,3.073l2.586,0.282l0.452,1.101l3.546,-1.224l2.399,0.557l2.869,-2.375l-1.437,-0.576l0.432,-0.906l2.379,0.79l0.938,-0.962l-0.564,-1.372l1.038,0.361l0.336,-0.809l-1.308,-0.711l3.496,-2.214l0.345,-1.768l-2.836,-3.482l-0.481,-2.225l1.511,-2.233l-0.755,-2.808l1.345,-3.821l-0.229,-2.332l2.728,-5.744l-2.191,-3.854l0.303,-5.353l3.724,-6.281l1.104,-4.986l2.143,-1.581l-0.511,-4.186l1.49,-5.978l1.561,-1.531l-0.245,-4.339l1.619,-3.569l5.182,-5.078l0.328,-2.209l1.818,-0.201l0.581,-1.602l2.479,-1.037l2.474,-6.417l3.259,-4.418L555.544,136.717z"/>

</svg>